<?xml version="1.0" standalone="no"?>
<!DOCTYPE svg PUBLIC "-//W3C//DTD SVG 20010904//EN"
 "http://www.w3.org/TR/2001/REC-SVG-20010904/DTD/svg10.dtd">
<svg version="1.0" xmlns="http://www.w3.org/2000/svg"
 width="700.000000pt" height="700.000000pt" viewBox="0 0 700.000000 700.000000"
 preserveAspectRatio="xMidYMid meet">
<metadata>
Created by potrace 1.14, written by Peter Selinger 2001-2017
</metadata>
<g transform="translate(0.000000,700.000000) scale(0.100000,-0.100000)"
fill="#000000" stroke="none">
<path d="M317 4422 c-13 -3 -17 -14 -17 -43 0 -34 3 -39 24 -39 14 0 26 7 28
18 5 16 30 17 384 17 339 -1 382 -3 412 -18 55 -29 39 -80 -33 -104 -18 -6
-156 -10 -333 -9 -166 1 -302 -1 -303 -4 0 -3 -2 -13 -4 -22 -3 -17 11 -18
188 -18 307 0 430 -5 454 -18 11 -6 30 -26 41 -44 19 -31 20 -49 19 -250 -2
-202 -3 -218 -23 -244 -11 -15 -32 -31 -46 -35 -14 -4 -190 -7 -392 -7 -352
-1 -366 0 -376 19 -12 21 -50 26 -51 7 0 -7 -2 -23 -3 -36 -2 -13 1 -25 6 -28
6 -4 825 -5 898 -2 25 2 72 32 93 60 18 24 20 44 20 266 0 217 -1 243 -18 269
-22 33 -41 50 -75 64 -25 11 -25 11 -4 19 28 11 54 48 54 78 0 37 -17 60 -63
83 -40 21 -54 22 -452 23 -227 0 -419 0 -428 -2z"/>
<path d="M1957 4422 c-25 -5 -22 -42 3 -42 24 0 22 42 23 -405 0 -345 0 -360
-19 -370 -27 -14 -27 -45 0 -46 52 -2 169 2 176 6 4 2 7 146 6 319 l-1 314
170 2 c94 0 193 3 220 6 83 10 135 41 156 94 13 30 -17 78 -62 101 -42 21 -56
22 -349 23 -169 0 -314 0 -323 -2z m593 -50 c67 -23 73 -69 13 -104 -24 -14
-61 -17 -228 -18 l-200 -1 2 33 c1 18 2 49 2 68 l1 36 188 -1 c115 -1 200 -6
222 -13z m-442 -382 c0 -310 -3 -390 -13 -390 -10 0 -12 80 -12 390 0 307 3
390 13 390 10 0 12 -83 12 -390z"/>
<path d="M2763 4416 c-4 -5 -7 -196 -7 -424 -1 -297 2 -419 10 -427 7 -7 30
-9 60 -6 l49 6 0 400 c1 370 2 400 18 403 24 5 23 52 0 53 -10 0 -42 1 -71 2
-30 1 -56 -2 -59 -7z"/>
<path d="M2968 4422 l-27 -3 2 -172 2 -172 38 0 c21 0 41 4 44 9 5 7 7 186 4
311 -1 32 -5 34 -63 27z m24 -154 c-1 -94 -1 -102 -9 -95 -3 4 -6 37 -5 75 1
95 1 96 8 89 4 -4 6 -35 6 -69z m8 -152 c0 -3 -4 -8 -10 -11 -5 -3 -10 -1 -10
4 0 6 5 11 10 11 6 0 10 -2 10 -4z"/>
<path d="M3173 4422 c-33 -5 -31 -42 1 -42 23 0 24 -3 22 -56 -2 -41 -7 -59
-19 -66 -22 -12 -22 -28 1 -28 10 0 19 -7 19 -15 0 -8 -7 -14 -15 -13 -24 5
-25 -19 -1 -25 22 -6 18 -27 -7 -27 -8 0 -14 -7 -14 -15 0 -10 7 -15 17 -13
16 3 17 -16 18 -252 l0 -255 -33 -3 c-29 -3 -32 -6 -26 -25 3 -12 8 -23 9 -25
2 -2 1168 -5 1313 -3 38 1 42 3 42 26 0 24 1 25 23 11 56 -36 89 -37 1170 -37
584 0 1081 0 1105 0 l42 1 0 50 c0 43 -3 50 -19 50 -11 0 -21 -6 -23 -12 -4
-10 -127 -13 -571 -14 l-567 0 0 243 0 243 28 1 c15 0 172 1 350 1 270 0 322
2 322 14 0 12 -55 14 -350 14 -288 0 -350 2 -350 14 0 11 61 13 345 13 190 0
348 3 352 6 3 4 3 10 0 13 -4 4 -162 7 -352 7 -288 -1 -345 2 -345 13 0 12 58
14 350 14 305 0 350 2 350 15 0 13 -30 15 -217 14 -120 0 -278 0 -351 0 l-133
1 3 47 3 47 319 0 c289 1 320 -1 323 -16 5 -15 52 -32 54 -19 6 33 3 94 -4 98
-7 4 -1634 7 -1787 4 -39 -1 -90 -50 -101 -96 -5 -22 -9 -88 -9 -147 0 -93 -3
-108 -17 -108 -15 0 -15 -1 0 -18 21 -23 21 -30 0 -34 -15 -3 -15 -5 2 -22 18
-18 18 -19 0 -32 -16 -12 -17 -14 -2 -20 22 -8 22 -34 0 -34 -14 0 -14 -2 2
-20 18 -20 18 -21 0 -34 -16 -12 -17 -14 -2 -22 12 -7 16 -29 19 -92 2 -45 0
-82 -4 -82 -5 0 -7 -6 -5 -12 1 -10 -116 -13 -558 -14 -308 0 -566 1 -572 4
-10 3 -13 61 -13 243 l0 239 23 1 c12 0 171 1 354 1 278 0 331 3 326 14 -4 12
-66 14 -355 14 -275 0 -349 3 -345 13 3 9 82 12 346 13 246 0 345 4 353 12 14
14 47 13 -374 14 -272 0 -328 3 -328 14 0 11 61 14 353 16 228 2 351 7 349 13
-2 9 -162 13 -574 15 l-128 0 0 45 c0 29 4 45 13 46 6 0 153 2 326 2 287 2
315 1 319 -15 5 -21 29 -31 39 -15 4 7 9 26 10 42 4 64 32 60 -414 60 -225 0
-418 -1 -430 -3z m2371 -89 c-1 -15 -3 -38 -3 -50 -1 -13 -7 -23 -16 -23 -8 0
-15 -7 -15 -15 0 -8 7 -15 15 -15 23 0 18 -27 -7 -35 l-23 -8 23 -4 c24 -5 31
-33 7 -33 -8 0 -15 -7 -15 -15 0 -8 8 -15 18 -15 16 0 17 -17 15 -223 -2 -312
0 -287 -23 -287 -14 0 -20 7 -20 23 0 16 -6 22 -25 23 -22 2 -30 -6 -26 -28 2
-12 -767 -10 -790 2 -17 9 -19 22 -19 106 0 75 3 96 15 100 8 4 15 10 15 15 0
5 -7 9 -15 9 -8 0 -15 7 -15 15 0 8 7 15 15 15 8 0 15 5 15 10 0 6 -7 10 -15
10 -20 0 -19 26 2 34 14 6 14 8 -3 21 -19 13 -19 14 1 29 19 13 19 15 3 21
-10 4 -18 14 -18 22 0 8 4 12 9 9 5 -3 11 1 15 9 3 9 0 15 -9 15 -13 0 -15 24
-15 145 0 132 2 145 19 155 13 6 158 10 404 10 l384 0 -1 -22 c-1 -18 4 -23
24 -23 18 0 25 5 25 20 0 25 26 38 40 20 6 -7 10 -26 9 -42z m-948 -132 c1
-94 -1 -131 -9 -128 -8 2 -12 47 -12 135 0 84 4 131 10 129 6 -2 11 -58 11
-136z m4 -172 c0 -5 -7 -9 -15 -9 -9 0 -12 6 -9 15 6 15 24 11 24 -6z m0 -48
c0 -17 -18 -21 -24 -6 -3 9 0 15 9 15 8 0 15 -4 15 -9z m-2 -59 c6 -18 -15
-14 -22 4 -4 10 -1 14 6 12 6 -2 14 -10 16 -16z m-1 -58 c-9 -9 -28 6 -21 18
4 6 10 6 17 -1 6 -6 8 -13 4 -17z m1 -121 c0 -72 -2 -85 -12 -71 -8 11 -12 43
-10 85 2 78 2 73 12 73 5 0 9 -39 10 -87z"/>
<path d="M4783 4005 c-35 -15 -46 -36 -36 -73 14 -56 77 -70 112 -26 22 28 22
46 3 80 -15 28 -42 34 -79 19z m51 -68 c-8 -22 -40 -22 -48 0 -10 25 23 48 41
30 8 -7 11 -21 7 -30z"/>
<path d="M1590 4087 c0 -46 -1 -49 -22 -43 -68 19 -73 19 -84 -13 -12 -30 -12
-30 37 -46 l49 -17 -29 -40 -30 -41 24 -18 c13 -11 26 -19 29 -19 3 0 18 18
32 40 l27 40 29 -40 c33 -44 40 -47 62 -24 22 21 20 30 -10 69 l-25 34 40 11
c47 12 55 22 46 57 -5 20 -10 24 -28 20 -82 -21 -76 -24 -79 29 -3 47 -4 49
-35 50 -33 1 -33 1 -33 -49z"/>
<path d="M743 3942 c-25 -4 -27 -9 -14 -31 19 -31 141 -14 141 18 0 10 -89 18
-127 13z"/>
<path d="M750 3875 c0 -12 35 -75 41 -75 8 0 39 57 39 72 0 4 -18 8 -40 8 -22
0 -40 -2 -40 -5z"/>
<path d="M2305 3821 c19 -37 35 -48 46 -30 6 10 0 21 -19 36 -37 30 -45 28
-27 -6z"/>
<path d="M2441 3827 c-31 -19 -32 -21 -16 -34 16 -11 21 -9 37 18 11 17 18 32
16 34 -2 1 -18 -7 -37 -18z"/>
<path d="M2366 3764 c-4 -10 -2 -22 3 -27 14 -14 43 0 39 20 -4 24 -34 28 -42
7z"/>
<path d="M2306 3689 c-28 -42 -20 -42 32 -1 20 16 21 20 9 30 -12 10 -19 5
-41 -29z"/>
<path d="M2424 3709 c-4 -7 4 -20 17 -30 35 -27 43 -23 22 11 -19 32 -28 37
-39 19z"/>
<path d="M1393 3355 c-52 -22 -66 -63 -71 -205 -2 -69 -8 -126 -13 -128 -13
-5 -11 -29 4 -36 10 -5 10 -7 0 -12 -15 -7 -17 -34 -3 -34 14 0 12 -28 -2 -33
-10 -3 -9 -8 2 -22 11 -14 12 -19 3 -22 -15 -5 -17 -33 -3 -33 6 0 10 -7 10
-16 0 -8 -4 -12 -10 -9 -5 3 -10 0 -10 -9 0 -8 4 -16 9 -18 5 -1 11 -34 12
-72 1 -38 4 -79 7 -91 6 -34 43 -70 92 -90 41 -16 83 -18 480 -19 239 -1 441
0 448 2 12 4 18 83 6 94 -10 10 -44 -4 -44 -18 0 -17 39 -16 -385 -16 -414 0
-386 0 -405 12 -21 13 -25 200 -4 200 19 0 18 19 -1 26 -8 4 -15 10 -15 15 0
5 7 9 15 9 8 0 15 7 15 15 0 8 -7 15 -15 15 -8 0 -15 4 -15 9 0 5 7 11 15 15
8 3 15 10 15 16 0 5 -7 10 -15 10 -20 0 -19 17 3 29 16 10 16 12 0 25 -22 16
-23 26 -3 26 8 0 15 7 15 15 0 8 -6 15 -14 15 -11 0 -14 26 -13 144 1 79 6
148 10 153 5 4 184 8 399 8 377 0 391 -1 394 -19 3 -23 22 -36 41 -29 8 3 13
22 13 49 l0 44 -467 0 c-376 -1 -474 -4 -500 -15z m67 -200 c0 -83 -4 -135
-10 -135 -6 0 -10 49 -10 128 0 113 3 142 17 142 2 0 3 -61 3 -135z m0 -176
c0 -5 -4 -9 -10 -9 -5 0 -10 7 -10 16 0 8 5 12 10 9 6 -3 10 -10 10 -16z m0
-54 c0 -8 -4 -15 -10 -15 -5 0 -10 7 -10 15 0 8 5 15 10 15 6 0 10 -7 10 -15z
m-4 -62 c-10 -10 -19 5 -10 18 6 11 8 11 12 0 2 -7 1 -15 -2 -18z m4 -45 c0
-16 -3 -19 -11 -11 -6 6 -8 16 -5 22 11 17 16 13 16 -11z m0 -123 c0 -50 -4
-85 -10 -85 -6 0 -10 35 -10 85 0 50 4 85 10 85 6 0 10 -35 10 -85z"/>
<path d="M2447 3362 c-25 -5 -19 -48 6 -44 9 2 17 -1 18 -5 1 -4 2 -161 4
-348 1 -187 3 -348 4 -357 3 -39 70 -79 161 -95 14 -3 216 -6 450 -7 426 -2
491 2 563 35 57 26 61 44 62 283 0 165 3 220 13 224 18 6 14 32 -5 32 -17 1
-17 1 0 14 21 16 22 36 2 36 -9 0 -12 6 -9 15 4 8 10 12 15 9 5 -3 9 1 9 9 0
8 -7 18 -16 21 -8 3 -12 10 -9 16 4 6 11 8 16 5 5 -4 9 1 9 9 0 9 -4 16 -10
16 -5 0 -10 7 -10 16 0 8 5 12 10 9 6 -3 10 0 10 8 0 8 -6 17 -14 20 -21 8 -8
47 15 47 12 0 19 7 19 20 0 20 -5 21 -92 18 l-93 -3 2 -43 c1 -23 -2 -40 -7
-37 -17 11 -22 -17 -4 -29 16 -13 16 -14 -2 -24 -19 -11 -19 -11 1 -26 19 -13
19 -15 3 -21 -10 -4 -18 -14 -18 -22 0 -8 4 -12 9 -8 5 3 13 0 17 -6 4 -6 -1
-16 -10 -21 -20 -11 -21 -28 -1 -28 8 0 15 -4 15 -10 0 -5 -7 -10 -15 -10 -8
0 -15 -7 -15 -15 0 -8 6 -15 14 -15 12 0 14 -37 12 -217 -2 -120 -4 -225 -4
-234 -4 -40 -49 -44 -467 -44 -427 0 -457 3 -469 48 -3 12 -6 188 -6 390 0
291 -3 368 -12 364 -10 -3 -13 -87 -13 -375 0 -244 -3 -371 -10 -369 -6 2 -12
142 -15 378 l-5 374 -55 0 c-31 0 -64 -1 -73 -3z"/>
<path d="M3859 3365 c-6 -22 -2 -31 16 -35 20 -6 20 -14 23 -413 2 -315 5
-407 15 -408 6 -1 265 -2 575 -3 368 0 562 2 563 9 1 6 2 34 3 63 2 48 1 52
-20 52 -16 0 -24 -7 -26 -22 l-3 -23 -495 0 -495 0 0 393 0 392 -77 0 c-43 0
-79 -2 -79 -5z"/>
<path d="M4720 3315 c0 -48 2 -55 20 -55 11 0 20 7 20 15 0 13 25 15 165 15
l165 0 2 -392 3 -393 55 1 55 0 3 392 2 392 285 0 c247 0 285 -2 285 -15 0 -8
9 -15 20 -15 18 0 20 7 20 55 l0 55 -550 0 -550 0 0 -55z"/>
<path d="M2994 3318 l1 -43 40 0 c40 0 40 0 43 43 l3 42 -44 0 -43 0 0 -42z"/>
<path d="M3129 3318 c6 -41 7 -43 41 -43 29 0 36 4 40 25 11 47 1 60 -44 60
l-42 0 5 -42z"/>
<path d="M2994 3188 l1 -43 43 0 42 -1 0 43 0 43 -44 0 -43 0 1 -42z"/>
<path d="M3130 3187 l0 -43 39 -1 c38 -1 39 0 43 39 2 21 2 41 -1 44 -2 2 -22
4 -43 4 l-38 0 0 -43z"/>
<path d="M5451 3095 c-7 -33 -14 -66 -16 -72 -3 -9 6 -13 25 -13 35 0 36 7 16
90 l-13 55 -12 -60z"/>
<path d="M5443 2963 c-7 -2 -13 -17 -13 -33 0 -31 25 -44 54 -28 20 11 21 32
0 52 -16 17 -21 18 -41 9z"/>
<path d="M1627 2943 c-32 -37 -22 -96 20 -111 49 -17 93 15 93 67 0 51 -79 81
-113 44z m57 -29 c22 -8 20 -31 -4 -44 -15 -8 -21 -7 -28 7 -17 33 -2 50 32
37z"/>
<path d="M5290 2945 l-55 -12 40 -11 c102 -27 105 -27 105 7 0 35 -2 35 -90
16z"/>
<path d="M5550 2930 c0 -16 3 -30 8 -29 4 0 34 6 66 13 l60 12 -60 17 c-77 22
-74 22 -74 -13z"/>
<path d="M4890 2855 c0 -4 4 -14 9 -24 14 -25 110 -26 128 -3 7 10 13 20 13
23 0 4 -34 7 -75 8 -41 1 -75 -1 -75 -4z"/>
<path d="M5435 2839 c-3 -4 -1 -19 5 -34 5 -14 10 -40 10 -56 0 -16 5 -29 12
-29 6 0 9 3 5 6 -3 3 1 24 9 46 8 22 14 46 14 53 0 14 -48 27 -55 14z"/>
<path d="M4926 2783 c11 -34 27 -63 35 -63 9 0 39 53 39 70 0 5 -18 10 -40 10
-33 0 -38 -3 -34 -17z"/>
<path d="M3047 2742 c-74 -3 -80 -11 -34 -45 37 -29 114 -27 156 2 17 12 31
26 31 31 0 10 -67 16 -153 12z"/>
</g>
</svg>
